<?xml version="1.0" encoding="iso-8859-1"?>
<!-- Generator: Adobe Illustrator 19.0.0, SVG Export Plug-In . SVG Version: 6.00 Build 0)  -->
<svg version="1.1" id="Layer_1" xmlns="http://www.w3.org/2000/svg" xmlns:xlink="http://www.w3.org/1999/xlink" x="0px" y="0px"
	 viewBox="0 0 512 512" style="enable-background:new 0 0 512 512;" xml:space="preserve">
<g>
	<g>
		<path d="M456.348,0c-27.618,0-50.087,22.469-50.087,50.087v428.522H372.87V183.652c0-27.618-22.469-50.087-50.087-50.087
			s-50.087,22.469-50.087,50.087v294.957h-33.391V116.87c0-27.618-22.469-50.087-50.087-50.087
			c-27.618,0-50.087,22.469-50.087,50.087v361.739h-33.391v-128c0-27.618-22.469-50.087-50.087-50.087
			c-27.618,0-50.087,22.469-50.087,50.087v144.696c0,9.22,7.475,16.696,16.696,16.696c15.291,0,461.255,0,467.478,0
			c9.22,0,16.696-7.475,16.696-16.696V50.087C506.435,22.469,483.966,0,456.348,0z M72.348,478.609H38.957v-128
			c0-9.206,7.49-16.696,16.696-16.696c9.206,0,16.696,7.49,16.696,16.696V478.609z M205.913,478.609h-33.391V116.87
			c0-9.206,7.49-16.696,16.696-16.696s16.696,7.49,16.696,16.696V478.609z M339.478,478.609h-33.391V183.652
			c0-9.206,7.49-16.696,16.696-16.696c9.206,0,16.696,7.49,16.696,16.696V478.609z M473.043,478.609h-33.391V50.087
			c0-9.206,7.49-16.696,16.696-16.696c9.206,0,16.696,7.49,16.696,16.696V478.609z"/>
	</g>
</g>
<g>
</g>
<g>
</g>
<g>
</g>
<g>
</g>
<g>
</g>
<g>
</g>
<g>
</g>
<g>
</g>
<g>
</g>
<g>
</g>
<g>
</g>
<g>
</g>
<g>
</g>
<g>
</g>
<g>
</g>
</svg>
