<svg version="1.1" id="Capa_1" xmlns="http://www.w3.org/2000/svg" x="0px" y="0px"
     viewBox="0 0 500 500" style="enable-background:new 0 0 500 500;" xml:space="preserve" fill="#1f9cd8">
  <g>
    <path
      d="M362.15,424.44a206.26,206.26,0,0,0,56.49-53.8l47.7,16.57,15.29-34.47,15.29-34.47L452.62,294a206.21,206.21,0,0,0,2-78l45.42-22-13.56-35.19-13.57-35.19-48.43,14.18a206.26,206.26,0,0,0-53.8-56.49l16.57-47.7L352.74,18.37,318.27,3.08,294,47.38a206.21,206.21,0,0,0-78-2L194.05,0,158.86,13.56,123.67,27.12l14.18,48.44a206.26,206.26,0,0,0-56.49,53.8l-47.7-16.57L18.37,147.26,3.08,181.73,47.38,206a206.21,206.21,0,0,0-2,78L0,306l13.56,35.19,13.56,35.19,48.44-14.18a206.26,206.26,0,0,0,53.8,56.49l-16.57,47.7,34.47,15.29,34.47,15.29L206,452.62a206.21,206.21,0,0,0,78,2L306,500l35.19-13.56,35.19-13.57ZM135.38,294.18a122.84,122.84,0,1,1,158.8,70.44A122.84,122.84,0,0,1,135.38,294.18Z"/>
  </g>
</svg>
